<svg id="Capa_1" data-name="Capa 1" xmlns="http://www.w3.org/2000/svg" viewBox="0 0 460.74 512.1"><defs><style>.cls-1{fill:#134427;}</style></defs><title>chicken-icon</title><path class="cls-1" d="M484.38,111.37a64,64,0,0,0-46-34.53,35.36,35.36,0,0,0-4.21-51.09l-0.26-.15a35.52,35.52,0,0,0-34.54-5.53,29.71,29.71,0,0,0-56.2,0,35.5,35.5,0,0,0-34.66,5.52l-0.2.17a35.64,35.64,0,0,0-2.76,52.91l7.76,7.76c-27.66,27.23-39.93,78.46-45.17,112.27a27.31,27.31,0,0,1-9.3,16.58,27.61,27.61,0,0,1-45.5-21V162.13a183.17,183.17,0,0,0-36-103.74A46.35,46.35,0,0,0,139.6,38.76a44.38,44.38,0,0,0-11,1.37A46,46,0,0,0,94,90.3a45.93,45.93,0,0,0-54.28,72L29.62,188.06A58.4,58.4,0,0,0,50.8,257.12L48.54,268.4a85.41,85.41,0,0,0,12.74,64.23,271.31,271.31,0,0,0,58.27,63.08,199.41,199.41,0,0,0,45.38,26.45,164.39,164.39,0,0,0,42.56,10.73A94.37,94.37,0,0,1,229.54,482a50.3,50.3,0,0,0-47.79,15.41,8.53,8.53,0,1,0,12.07,12.07c19.77-19.78,38.4-8.77,40.48-7.43,0.13,0.08.27,0.08,0.4,0.16a2.16,2.16,0,0,1,.21.16,8.42,8.42,0,0,0,2.25.85,9.82,9.82,0,0,0,1,.09,8.82,8.82,0,0,0,1.89,0,7.39,7.39,0,0,0,1-.18,8.35,8.35,0,0,0,2.56-1c0.85-.55,21.44-13.18,50,8.21a8.53,8.53,0,1,0,10.24-13.65,65.18,65.18,0,0,0-57-14.05,112.9,112.9,0,0,0-16.62-47.79c12.45,0.75,24.75,1.2,36.69,1.2,2.79,0,5.5-.11,8.26-0.15l6.75,27A8.53,8.53,0,0,0,294,468.45c1.18-.58,29.09-13.9,49.92,6.92A8.53,8.53,0,0,0,356,463.31,58.65,58.65,0,0,0,296.1,449.5l-3.54-14.17c4.63-.22,9.27-0.43,13.77-0.77,32.18-2.56,65.71-7.37,92.81-25.39,24.44-16.33,38.2-47,37.76-84.06a301.6,301.6,0,0,0-28.4-117.58,57,57,0,0,0,18.16-44.07c5.07-22.69,26.22-27.24,42.93-26.84a16.66,16.66,0,0,0,14.29-8A17.44,17.44,0,0,0,484.38,111.37Zm-74.61,49a7.88,7.88,0,0,0,0,.9,7.38,7.38,0,0,0-.18.85c0,19.54-9,34.13-17.07,34.13s-17.07-14.59-17.07-34.13,9-34.13,17.07-34.13a8.53,8.53,0,0,0,0-17.07c-19.14,0-34.13,22.49-34.13,51.2s14.93,51.1,34,51.2a286.21,286.21,0,0,1,27.43,112c0.18,14.77-2.42,51.12-30.16,69.67-23.85,15.86-54.8,20.22-84.66,22.58-6.83.52-13.82,0.85-20.93,1.1a8.15,8.15,0,0,0-4.56-.27,8,8,0,0,0-.77.36c-17.25.38-35.17,0-53.67-1.28a165.39,165.39,0,0,1-53.66-11.09A182.18,182.18,0,0,1,130,382.17,254.28,254.28,0,0,1,75.41,323a68.2,68.2,0,0,1-10.14-51.29l1-5.12L89.5,280.42a8.53,8.53,0,0,0,8.72-14.66L63.79,245.28A41.6,41.6,0,0,1,45.5,194.35l8.4-21.29,44.68,22.36a8.54,8.54,0,1,0,7.63-15.27L61,157.51a28.94,28.94,0,1,1,32-47.68L130.88,143a8.53,8.53,0,1,0,11.23-12.8L118.29,109.3l-4.11-10.84c-0.1-.27-0.22-0.54-0.35-0.8a28.86,28.86,0,0,1,18.89-41,29.69,29.69,0,0,1,30.71,11.56,166.22,166.22,0,0,1,32.83,93.87v32.17a44.64,44.64,0,0,0,88.75,7c5.12-33.05,21.79-110.51,65.94-116.05a8.53,8.53,0,0,0,7.4-9.53,8.44,8.44,0,0,0-9.53-7.4A56.91,56.91,0,0,0,327,76l-9.39-9.39a18.59,18.59,0,0,1,1.55-27.66l0.17-.14A18.59,18.59,0,0,1,344,40.28l8.42,8.42a8.53,8.53,0,0,0,12.07-12.07l-6-6V29.87a12.8,12.8,0,1,1,25.6,0,8.64,8.64,0,0,0,.38,1.88,8.46,8.46,0,0,0,14.08,8.53,18.61,18.61,0,0,1,24.64-1.49l0.18,0.15a18.59,18.59,0,0,1,1.52,27.67L412.09,79.3a8.76,8.76,0,0,0-.51.77,8.4,8.4,0,0,0-1,1.47A7.81,7.81,0,0,0,410,83a7.45,7.45,0,0,0-.31,1.58,8.67,8.67,0,0,0,.05,1.75,8.34,8.34,0,0,0,0,.92c0.05,0.21.2,0.37,0.27,0.57a8.05,8.05,0,0,0,.73,1.58,7.8,7.8,0,0,0,.93,1.4c0.14,0.17.2,0.38,0.36,0.55a7.91,7.91,0,0,0,.79.52,8.16,8.16,0,0,0,1.44,1,8,8,0,0,0,1.5.57,273.2,273.2,0,0,0,2.33.45,8,8,0,0,0,1-.2,7.12,7.12,0,0,0,.95,0,46.88,46.88,0,0,1,49.8,25.92C437,119.27,415.39,133.89,409.77,160.39Z" transform="translate(-25.68 0)"/><path class="cls-1" d="M298.66,247.46a8.53,8.53,0,0,0,0,17.07,55.92,55.92,0,0,1,45.58,20.34,43.08,43.08,0,0,1,5.12,39.77c-9.57,30.58-44.13,42.55-58.56,46.27-51,13.14-116.42-5.06-137.8-58.36a8.53,8.53,0,0,0-15.84,6.37C157,368.32,208.57,392,258.12,392A148.19,148.19,0,0,0,295,387.44c36.33-9.39,62.05-30.41,70.58-57.7a60.21,60.21,0,0,0-7.63-55A72.9,72.9,0,0,0,298.66,247.46Z" transform="translate(-25.68 0)"/><path class="cls-1" d="M148.91,263.64l0,0a39.08,39.08,0,0,1,15.36-3.37,26,26,0,0,1,24.36,16.61c19.23,38.37,65.44,38.81,67.4,38.81a8.53,8.53,0,1,0,0-17.07c-0.37,0-37.55-.34-52.05-29.41a45,45,0,0,0-62.65-20.89A8.54,8.54,0,1,0,148.91,263.64Z" transform="translate(-25.68 0)"/></svg>