<svg id="Capa_1" data-name="Capa 1" xmlns="http://www.w3.org/2000/svg" viewBox="0 0 448 480.03"><defs><style>.cls-1{fill:#134427;}</style></defs><title>seed</title><path class="cls-1" d="M178.52,89.42a16.9,16.9,0,0,1,0-18.75l0.5-.78A29.5,29.5,0,0,0,154.66,24a36.21,36.21,0,0,0-35.83,30.35,155.43,155.43,0,0,0,0,51.29A36.21,36.21,0,0,0,154.66,136h0.06A29.5,29.5,0,0,0,179,90.14Zm-13.29,8.9L165.71,99a13.5,13.5,0,0,1-11.1,21,20.27,20.27,0,0,1-20-17,139.73,139.73,0,0,1,0-46,20.25,20.25,0,0,1,20-17,13.5,13.5,0,0,1,11.14,21l-0.53.8A32.9,32.9,0,0,0,165.23,98.33Z" transform="translate(-16.02 0)"/><path class="cls-1" d="M352,32a32,32,0,1,0,32,32A32,32,0,0,0,352,32Zm0,48a16,16,0,1,1,16-16A16,16,0,0,1,352,80Z" transform="translate(-16.02 0)"/><path class="cls-1" d="M48,248a32,32,0,1,0,32,32A32,32,0,0,0,48,248Zm0,48a16,16,0,1,1,16-16A16,16,0,0,1,48,296Z" transform="translate(-16.02 0)"/><path class="cls-1" d="M208,320a32,32,0,1,0,32,32A32,32,0,0,0,208,320Zm0,48a16,16,0,1,1,16-16A16,16,0,0,1,208,368Z" transform="translate(-16.02 0)"/><path class="cls-1" d="M160,144a32,32,0,1,0,32,32A32,32,0,0,0,160,144Zm0,48a16,16,0,1,1,16-16A16,16,0,0,1,160,192Z" transform="translate(-16.02 0)"/><path class="cls-1" d="M376,176a32,32,0,1,0,32,32A32,32,0,0,0,376,176Zm0,48a16,16,0,1,1,16-16A16,16,0,0,1,376,224Z" transform="translate(-16.02 0)"/><path class="cls-1" d="M336,272a32,32,0,1,0,32,32A32,32,0,0,0,336,272Zm0,48a16,16,0,1,1,16-16A16,16,0,0,1,336,320Z" transform="translate(-16.02 0)"/><path class="cls-1" d="M232,416a32,32,0,1,0,32,32A32,32,0,0,0,232,416Zm0,48a16,16,0,1,1,16-16A16,16,0,0,1,232,464Z" transform="translate(-16.02 0)"/><path class="cls-1" d="M448,118.66L441.39,112a54.3,54.3,0,0,0-38.63-16H388.14a8,8,0,0,0-8,8v14.62a54.3,54.3,0,0,0,16,38.63l6.62,6.62a54.3,54.3,0,0,0,38.63,16A22.65,22.65,0,0,0,464,157.29,54.3,54.3,0,0,0,448,118.66Zm-6.62,45.26a38.4,38.4,0,0,1-27.32-11.31L407.45,146a38.4,38.4,0,0,1-11.31-27.32V112h6.62a38.4,38.4,0,0,1,27.32,11.31L436.7,130A38.4,38.4,0,0,1,448,157.29,6.62,6.62,0,0,1,441.39,163.91Z" transform="translate(-16.02 0)"/><path class="cls-1" d="M307.9,100.15H293.27a54.3,54.3,0,0,0-38.63,16L248,122.78a54.3,54.3,0,0,0-16,38.63A22.66,22.66,0,0,0,254.64,184a54.3,54.3,0,0,0,38.63-16l6.62-6.62a54.3,54.3,0,0,0,16-38.63V108.15A8,8,0,0,0,307.9,100.15Zm-8,22.62a38.4,38.4,0,0,1-11.31,27.32L282,156.72A38.4,38.4,0,0,1,254.64,168a6.62,6.62,0,0,1-6.62-6.62,38.4,38.4,0,0,1,11.31-27.32l6.62-6.62a38.4,38.4,0,0,1,27.32-11.31h6.62v6.62Z" transform="translate(-16.02 0)"/><path class="cls-1" d="M307.9,204.15H293.27a54.3,54.3,0,0,0-38.63,16L248,226.78a54.3,54.3,0,0,0-16,38.63A22.66,22.66,0,0,0,254.64,288a54.3,54.3,0,0,0,38.63-16l6.62-6.62a54.3,54.3,0,0,0,16-38.63V212.15A8,8,0,0,0,307.9,204.15Zm-8,22.62a38.4,38.4,0,0,1-11.31,27.32L282,260.72A38.4,38.4,0,0,1,254.64,272a6.62,6.62,0,0,1-6.62-6.62,38.4,38.4,0,0,1,11.31-27.32l6.62-6.62a38.4,38.4,0,0,1,27.32-11.31h6.62v6.62Z" transform="translate(-16.02 0)"/><path class="cls-1" d="M80,116.72L69.67,106.38a8,8,0,0,0-11.31,0L48,116.72a54.25,54.25,0,0,0-16,38.62v9.38a54.25,54.25,0,0,0,16,38.62,22.66,22.66,0,0,0,32,0,54.26,54.26,0,0,0,16-38.62v-9.38A54.26,54.26,0,0,0,80,116.72Zm0,48A38.4,38.4,0,0,1,68.7,192a6.66,6.66,0,0,1-9.38,0A38.4,38.4,0,0,1,48,164.72v-9.38A38.4,38.4,0,0,1,59.33,128L64,123.34,68.7,128A38.4,38.4,0,0,1,80,155.34v9.38Z" transform="translate(-16.02 0)"/><path class="cls-1" d="M123.9,366.66L117.27,360a54.3,54.3,0,0,0-38.63-16H64a8,8,0,0,0-8,8v14.62a54.3,54.3,0,0,0,16,38.63l6.62,6.62a54.3,54.3,0,0,0,38.63,16,22.64,22.64,0,0,0,22.62-22.62A54.3,54.3,0,0,0,123.9,366.66Zm-6.62,45.26A38.4,38.4,0,0,1,90,400.6L83.33,394A38.4,38.4,0,0,1,72,366.66V360h6.62A38.4,38.4,0,0,1,106,371.34l6.62,6.62a38.4,38.4,0,0,1,11.31,27.32A6.62,6.62,0,0,1,117.27,411.91Z" transform="translate(-16.02 0)"/><path class="cls-1" d="M303.42,25.61a29.5,29.5,0,0,0-7.94-14.94,36.22,36.22,0,0,0-46.81-3.86,155.06,155.06,0,0,0-36.26,36.26,36.21,36.21,0,0,0,3.86,46.8l0,0a29.06,29.06,0,0,0,20.49,8.52,29.94,29.94,0,0,0,8.8-1.34,29.06,29.06,0,0,0,20.26-22.4l0.19-.91a16.86,16.86,0,0,1,13.36-13.26l0.86-.18A29.51,29.51,0,0,0,303.42,25.61Zm-16,9.76a13.32,13.32,0,0,1-10.28,9.28l-0.86.18a32.8,32.8,0,0,0-25.85,25.79l-0.19.91a13.5,13.5,0,0,1-22.68,7,20.25,20.25,0,0,1-2.14-26.17,139.27,139.27,0,0,1,32.54-32.54,20.26,20.26,0,0,1,26.15,2.11A13.33,13.33,0,0,1,287.4,35.38Z" transform="translate(-16.02 0)"/><path class="cls-1" d="M458.52,321.42a16.9,16.9,0,0,1,0-18.75l0.52-.8A29.5,29.5,0,0,0,434.66,256a36.21,36.21,0,0,0-35.83,30.35,155.43,155.43,0,0,0,0,51.29A36.21,36.21,0,0,0,434.66,368h0.06A29.5,29.5,0,0,0,459,322.14Zm-13.31,8.93,0.48,0.71a13.5,13.5,0,0,1-11.07,21,20.27,20.27,0,0,1-20-17,139.73,139.73,0,0,1,0-46,20.25,20.25,0,0,1,20-17,13.5,13.5,0,0,1,11.14,21l-0.53.8A32.89,32.89,0,0,0,445.21,330.35Z" transform="translate(-16.02 0)"/><path class="cls-1" d="M369.24,395.06A155.06,155.06,0,0,0,333,358.81a36.2,36.2,0,0,0-46.8,3.86l0,0a29.5,29.5,0,0,0,15.2,49.6l0.91,0.19a16.86,16.86,0,0,1,13.27,13.3l0.18,0.86A29.08,29.08,0,0,0,336,449.09a29.87,29.87,0,0,0,8.8,1.34,29.12,29.12,0,0,0,20.57-8.57A36.21,36.21,0,0,0,369.24,395.06Zm-15.13,35.45a13.51,13.51,0,0,1-22.72-7l-0.18-.86a32.8,32.8,0,0,0-25.79-25.82l-0.91-.19a13.5,13.5,0,0,1-7-22.68,20.26,20.26,0,0,1,26.18-2.14,139.27,139.27,0,0,1,32.54,32.54A20.25,20.25,0,0,1,354.11,430.51Z" transform="translate(-16.02 0)"/><path class="cls-1" d="M191.74,232.57h0a29.5,29.5,0,0,0-49.6,15.2l-0.19.91A16.86,16.86,0,0,1,128.6,262l-0.86.18a29.49,29.49,0,0,0-15.21,49.64,36.22,36.22,0,0,0,46.81,3.86,155.06,155.06,0,0,0,36.26-36.26A36.22,36.22,0,0,0,191.74,232.57Zm-9.14,37.51a139.27,139.27,0,0,1-32.54,32.54,20.28,20.28,0,0,1-26.15-2.11,13.51,13.51,0,0,1,7-22.72l0.86-.18a32.8,32.8,0,0,0,25.85-25.79l0.19-.91a13.3,13.3,0,0,1,9.27-10.26,13.67,13.67,0,0,1,4-.62,13.31,13.31,0,0,1,9.36,3.87A20.27,20.27,0,0,1,182.6,270.08Z" transform="translate(-16.02 0)"/></svg>