<svg id="Capa_1" data-name="Capa 1" xmlns="http://www.w3.org/2000/svg" viewBox="0 0 46.93 47.36"><defs><style>.cls-1{fill:#134427;}</style></defs><title>fish-icon</title><path class="cls-1" d="M38.4,15.3a3,3,0,0,0,5.1-2.1,2.72,2.72,0,0,0-.9-2.1,3,3,0,0,0-2.1-.9,3.08,3.08,0,0,0-3,3,4.35,4.35,0,0,0,.9,2.1h0Zm1.5-2.9a1,1,0,0,1,1.4,0,1,1,0,0,1,0,1.4,1,1,0,0,1-1.4,0h0a0.91,0.91,0,0,1-.3-0.7A1.08,1.08,0,0,1,39.9,12.4Z" transform="translate(-0.17 0)"/><path class="cls-1" d="M0.2,33.8a2.14,2.14,0,0,0,1.3,1.6,1.77,1.77,0,0,1,.8,1.4c0.2,0.8.6,2.1,2.2,2a1.45,1.45,0,0,1,1.7,1.7,3.38,3.38,0,0,0,1,2.9,3.86,3.86,0,0,0,2.8,1v0.2a2.7,2.7,0,0,0,2.6,2.6,2.76,2.76,0,0,0,2.3-.2,2.44,2.44,0,0,0,1-1.9V38.8H26.1a23.15,23.15,0,0,0,4.6-.5A16.54,16.54,0,0,0,33.4,44l0.5,0.7,0.8-.4c0.2-.1,4.7-2.4,5.9-6.2a6.66,6.66,0,0,0-.3-4.8,20.69,20.69,0,0,0,6.8-15.4V0H29.5A21,21,0,0,0,14.6,6.2c-0.5.5-.9,1-1.4,1.5-0.4,0-.9-0.1-1.4-0.1a16.88,16.88,0,0,0-10,3.3l-0.7.5,0.4,0.8c0.1,0.2,2.7,5.3,7.1,6.1a26.42,26.42,0,0,0-.2,2.9V31.3L2,31.2H1.9a2.28,2.28,0,0,0-1.2.6h0A2.88,2.88,0,0,0,.2,33.8Zm38.7,1a4.47,4.47,0,0,1,0,2.8c-0.7,2.2-3,3.9-4.1,4.6a13.79,13.79,0,0,1-1.9-4.3,20.29,20.29,0,0,0,2.6-1.1l0.6-.3a3.51,3.51,0,0,0,.8-0.5,5.58,5.58,0,0,0,.8-0.5c0.2-.2.5-0.3,0.7-0.5A0.76,0.76,0,0,0,38.9,34.8ZM8.9,16.3c-2.5-.5-4.4-3-5.2-4.3a14.29,14.29,0,0,1,8-2.4,22.07,22.07,0,0,0-2.8,6.5v0.2ZM2.2,33.2l8.1,0.1V21.1a18.7,18.7,0,0,1,.3-3.4V17.6c0.1-.3.1-0.6,0.2-0.9,0-.1.1-0.3,0.1-0.4a19.37,19.37,0,0,1,3.4-6.9l0.4-.5c0.4-.4.7-0.9,1.1-1.3A19.81,19.81,0,0,1,29.5,2H45.4V18a18.78,18.78,0,0,1-6.8,14.5,18.39,18.39,0,0,1-5.2,3.1h0a13.89,13.89,0,0,1-1.9.6,17,17,0,0,1-5.1.7H14.2v8.2a0.44,0.44,0,0,1-.1.3,1.58,1.58,0,0,1-.7,0l-0.3-.1a0.9,0.9,0,0,1-1-1,1.83,1.83,0,0,0-2-1.8,1.45,1.45,0,0,1-1.7-1.7,3.38,3.38,0,0,0-1-2.9,3.48,3.48,0,0,0-2.8-1,4.17,4.17,0,0,1-.2-0.6,3.58,3.58,0,0,0-1.9-2.6,0.38,0.38,0,0,1-.2-0.2,0.37,0.37,0,0,1-.1-0.3h0Zm-0.1-.1h0l-0.6-.5Z" transform="translate(-0.17 0)"/><path class="cls-1" d="M40.6,22.6v-2a14,14,0,0,1-14-14h-2A16,16,0,0,0,40.6,22.6Z" transform="translate(-0.17 0)"/><path class="cls-1" d="M37.3,25.9v-2a14,14,0,0,1-14-14h-2A16,16,0,0,0,37.3,25.9Z" transform="translate(-0.17 0)"/><path class="cls-1" d="M34.2,29V27a14,14,0,0,1-14-14h-2A16,16,0,0,0,34.2,29Z" transform="translate(-0.17 0)"/><path class="cls-1" d="M30.9,32.2v-2a14,14,0,0,1-14-14h-2A16,16,0,0,0,30.9,32.2Z" transform="translate(-0.17 0)"/></svg>