<svg id="Layer_1" data-name="Layer 1" xmlns="http://www.w3.org/2000/svg" viewBox="0 0 512 432.59"><defs><style>.cls-1{fill:#134427;}</style></defs><title>goat (2)</title><path class="cls-1" d="M216.72,184.74l-111.11-1c-0.35,0-.7,0-1.06.06a79.34,79.34,0,0,0-31.22,10.89,84.7,84.7,0,0,0-30.12,7.28C24.59,210.38,10.4,225.26,1,246.16a12.07,12.07,0,0,0,9.59,16.92,112,112,0,0,0,13.28.8,93.19,93.19,0,0,0,10.84-.61v9.26a7.84,7.84,0,0,0,15.67,0V263c0-1.1,0-2.18.08-3.26a63.39,63.39,0,0,1,4.27-19.92,64.41,64.41,0,0,1,36.84-36.72A63.91,63.91,0,0,1,106,199.39l110.55,1h0.07A7.83,7.83,0,0,0,216.72,184.74ZM36.34,247.23a83.76,83.76,0,0,1-18.79.76c8.92-17.32,21-26.84,32.56-32A79.46,79.46,0,0,0,36.34,247.23Z" transform="translate(0 -39.7)"/><path class="cls-1" d="M422.89,208.78a7.83,7.83,0,0,0-8.53,7.07c-1.8,19.32-4.34,36-7.57,49.67A79.77,79.77,0,0,1,390,298.28c-31.59,37.89-40.82,104.23-42.73,121.33l-15.83,4.07-1.47-99.31a7.77,7.77,0,0,0-.21-1.69,12.27,12.27,0,0,0-11.49-9.43l-176.47-7.07a12.15,12.15,0,0,0-8.8,3.29L86.49,352.59l0,0L75.15,363.12H57.07a12.31,12.31,0,0,0-12.3,12.29v49.93l-12.16,1.81V347.7a8.06,8.06,0,0,0,.58-0.59l11.91-13.41a12.33,12.33,0,0,0,5.32-10.11V312.68a7.84,7.84,0,0,0-15.67,0v9.16a7.85,7.85,0,0,0-.58.59L22.26,335.83A12.35,12.35,0,0,0,16.94,346V460h0A12.3,12.3,0,0,0,29.23,472.3H65.85A12.28,12.28,0,0,0,77.77,457L74,441.86A12.32,12.32,0,0,0,69.41,435l-9-6.72V378.78h16a12.28,12.28,0,0,0,7.72-2.73v56.57s0,0.06,0,.09v27.73A11.87,11.87,0,0,0,96,472.3h39.61a11.83,11.83,0,0,0,11.76-13.18c0-.27-0.05-0.53-0.1-0.8l-3.21-17.63c0-.19-0.09-0.37-0.13-0.55s-0.09-.44-0.15-0.65-0.09-.26-0.14-0.39-0.17-.52-0.27-0.77-0.2-.43-0.3-0.65-0.14-.31-0.22-0.46a12,12,0,0,0-4.22-4.5l-14.52-9V378.61l17.13-1.41a7.83,7.83,0,0,0,6.06-3.75l30.4-50.15,80.77,3.24L248,458.91a12.61,12.61,0,0,0,.23,3.7c0,0.06,0,.12,0,0.18s0.07,0.23.1,0.34a12.38,12.38,0,0,0,2.85,5.32,11.81,11.81,0,0,0,8.67,3.85H295a11.24,11.24,0,0,0,2-.18,11.63,11.63,0,0,0,9.06-8.36c0.09-.33.17-0.67,0.24-1l1.29-6.76,1.7-8.9a12.16,12.16,0,0,0-2.12-9.4,11.65,11.65,0,0,0-3.28-3l-11.45-7,18.61-98.95,3.25,0.13,1.56,105s0,0,0,.06v0c0,0.07,0,.14,0,0.21s0,0.35,0,.52,0.07,0.49.11,0.74l5.64,27.3,0,0.21a12.23,12.23,0,0,0,12,9.46H371.2a11.82,11.82,0,0,0,11.54-9.1l3.43-14.32c0-.16.07-0.33,0.1-0.49s0.05-.24.07-0.36,0-.3.05-0.44,0-.28.05-0.42,0-.3,0-0.45,0-.27,0-0.41,0-.29,0-0.44,0-.28,0-0.42,0-.26,0-0.4,0-.3,0-0.45-0.07-.49-0.12-0.74l0-.1c-0.05-.27-0.12-0.53-0.19-0.79v0a11.85,11.85,0,0,0-4.24-6.26l-19.1-14.55c1.59-14.24,10.24-79,39.27-113.84a95.24,95.24,0,0,0,20-39.17c3.39-14.35,6.06-31.78,7.92-51.83A7.83,7.83,0,0,0,422.89,208.78ZM61.51,456.63H32.61V443l17.8-2.65L54,443,59,446.8ZM129,445.14l2.09,11.49H99.86V439.3l15.38-2.66Zm7-83.22-20.34,1.68a7.83,7.83,0,0,0-7.19,7.8v50.52l-8.62,1.49V361.56l42.74-39.67,17.25,0.69Zm157.41,84.67-1.08,5.65-0.84,4.39H263.9l1.2-15.11,15.63-2.88,0.11,0.08a11.91,11.91,0,0,0,1.13.81Zm-16.13-23.23-10.91,2,7.8-98.2,21,0.84Zm93.05,24.29-2.15,9H336.43l-3.54-17.16,20-5.14Z" transform="translate(0 -39.7)"/><path class="cls-1" d="M498.2,65.73c-7.8-3.48-51.86-22.57-82.92-23.53a15.61,15.61,0,0,0-8.18-2.4L401,39.71a44.32,44.32,0,0,0-15.31,2.44h-0.49c-0.83,0-1.68,0-2.59.08l-55.31,4.68A154.7,154.7,0,0,0,217,107.83a7.83,7.83,0,0,0,9.39,11.89l33.3-14.47A137.93,137.93,0,0,1,315,93.74h21.62l-16.81,48.33a64.09,64.09,0,0,1-60.57,43.05h-0.67a7.83,7.83,0,0,0-.07,15.66h0.74a79.76,79.76,0,0,0,75.38-53.57l18.6-53.47h6.1c1.09,6.48,6,11.44,13.18,13a23.87,23.87,0,0,0,5.07.53,31.61,31.61,0,0,0,14.74-3.88A36.72,36.72,0,0,0,408.5,85.87l12.29-25.28a14.37,14.37,0,0,0,.86-2.24c30,3.41,70.71,21.92,71.16,22.13a7.81,7.81,0,0,0,1.15.42,17.17,17.17,0,0,1,2.37,6.95v9.34c0,5.84-2,10.45-5.82,13.69-5.3,4.46-14.06,6.14-23.43,4.51l-40.78-7.12a7.83,7.83,0,0,0-9.18,8c0,0.26.95,26.11-.21,58.69a7.83,7.83,0,0,0,7.55,8.1h0.28a7.83,7.83,0,0,0,7.83-7.55c0.75-21.14.63-39.55,0.45-50.18l31.37,5.48c14.08,2.45,27.28-.44,36.21-7.95C508.06,116.61,512,107.72,512,97.2V87.85C512,81.92,507.86,67.59,498.2,65.73ZM361.7,69.44l-1.07,8.64H315a153.44,153.44,0,0,0-56.68,10.77,139,139,0,0,1,70.29-26.32l36.13-3.06A29.88,29.88,0,0,0,361.7,69.44Zm32.64,9.7-0.1.22a20.48,20.48,0,0,1-14.2,12c-2.84.55-4.65,0-5.22-.29l0.52-4.2v0l1.91-15.5c0.7-5.66,4.93-10.66,11.39-13.54h16.05Z" transform="translate(0 -39.7)"/><ellipse class="cls-1" cx="425.24" cy="33.78" rx="7.84" ry="7.83"/></svg>