<?xml version="1.0" encoding="utf-8"?>
<!-- Generator: Adobe Illustrator 19.2.0, SVG Export Plug-In . SVG Version: 6.00 Build 0)  -->
<svg version="1.1" id="Capa_1" xmlns="http://www.w3.org/2000/svg" xmlns:xlink="http://www.w3.org/1999/xlink" x="0px" y="0px"
	 viewBox="0 0 462.3 462.3" style="enable-background:new 0 0 462.3 462.3;" xml:space="preserve">
<style type="text/css">
	.st0{fill:#134427;}
</style>
<g>
	<path class="st0" d="M438.6,347.6c0-25.1-16.9-47.1-41.2-53.6l-75.6-20.2c-0.7-6.7-4.3-13.1-10.3-17.1l-12.3-8.2
		c-1.4-0.9-3.1-1.3-4.7-1.2v-6.9c24.3-19,40-48.5,40-81.7v-25.3c2,0.4,3,0.6,3.1,0.6c0.6,0.1,1.1,0.2,1.7,0.2c2.1,0,4.1-0.9,5.6-2.5
		c3.7-4.1,5.6-8.5,5.6-13c0-6.2-3.2-11.9-9.5-16.8l-5-54.9c-1.2-13.3-10.7-24.5-23.7-27.7L238.8,0.9c-5-1.3-10.3-1.3-15.3,0
		l-73.6,18.4c-13,3.2-22.5,14.4-23.7,27.7l-5,54.9c-6.3,5-9.5,10.6-9.5,16.8c0,4.5,1.9,8.9,5.6,13c1.8,2,4.6,2.9,7.3,2.3
		c0.1,0,1.1-0.2,3.1-0.6v25.3c0,33.2,15.7,62.7,40,81.7v6.9c-1.6-0.1-3.2,0.3-4.7,1.2l-12.3,8.2c-6,4-9.6,10.4-10.3,17.1L64.8,294
		c-24.2,6.5-41.2,28.5-41.2,53.6v33.8c0,7.9,3,15.3,8,21v28.3c0,17.4,14.1,31.5,31.5,31.5h40h256h40c17.4,0,31.5-14.1,31.5-31.5
		v-28.3c5-5.6,8-13,8-21V347.6z M423.6,347.6v33.8c0,7.1-4.5,13.4-11.3,15.7l-45.7,15.2v-21c0-8.7,3.4-16.8,9.5-23l41.6-41.6
		C421.5,332.9,423.6,340,423.6,347.6z M296.1,264.4l7.1,4.8c3.6,2.4,4.8,7,2.9,10.9c-14.2,28.5-24,48-29.2,58.4
		c-12.9-11.3-24.6-18.3-32.6-22.2L296.1,264.4z M134.8,117l0.6-6.5c4.2-2.3,10.1-4.8,18.6-7.2c20.5-5.9,47.9-9.1,77.1-9.1
		s56.6,3.2,77.1,9.1c8.5,2.4,14.4,4.9,18.6,7.2l0.6,6.5c-16.5-2.4-48.1-5.8-96.3-5.8S151.3,114.6,134.8,117z M141.1,48.4
		c0.6-7,5.6-12.8,12.4-14.5l73.6-18.4c2.6-0.7,5.4-0.7,8,0l73.6,18.4c6.8,1.7,11.8,7.5,12.4,14.5l4.1,44.9c-3.9-1.5-8.2-3-12.9-4.3
		c-20-5.7-46-9.1-73.8-9.6V38.8c0-4.1-3.4-7.5-7.5-7.5s-7.5,3.4-7.5,7.5v40.6c-27.8,0.5-53.7,3.9-73.8,9.6c-4.7,1.4-9,2.8-12.9,4.3
		L141.1,48.4z M142.6,158.8v-27.6c17.1-2.2,46.4-4.9,88.5-4.9c42.1,0,71.4,2.7,88.5,4.9v27.6c0,48.8-39.7,88.5-88.5,88.5
		S142.6,207.6,142.6,158.8z M231.1,262.3c17.5,0,34-4.4,48.5-12.1v9.5l-48.5,48.5l-48.5-48.5v-9.5
		C197.1,257.9,213.6,262.3,231.1,262.3z M159,269.2l7.1-4.8l51.8,51.8c-8,4-19.8,10.9-32.6,22.2c-5.2-10.4-15-29.9-29.2-58.4
		C154.2,276.2,155.5,271.5,159,269.2z M68.7,308.5l74.9-20l31.8,63.7c1.5,2.9,2.7,5.4,6.5,6c0.4,0.1,0.8,0.1,1.2,0.1
		c2,0,3.9-0.8,5.3-2.2c13.8-13.6,26.8-21.6,35.2-25.9v76.6c0,4.1,3.4,7.5,7.5,7.5s7.5-3.4,7.5-7.5v-76.6
		c8.4,4.3,21.4,12.3,35.2,25.9c1.4,1.4,3.3,2.2,5.3,2.2c0.4,0,0.8,0,1.2-0.1c3.8-0.6,5-3.1,6.5-6l31.8-63.7l74.9,20
		c5.3,1.4,10.1,3.8,14.2,7l-42.2,42.2c-9,9-13.9,20.9-13.9,33.6v31.6c0,0,0,0,0,0v24.3h-241v-24.3c0,0,0,0,0,0v-31.6
		c0-12.7-4.9-24.6-13.9-33.6l-42.2-42.2C58.6,312.3,63.4,309.9,68.7,308.5z M38.6,347.6c0-7.6,2.1-14.7,5.8-20.9l41.6,41.6
		c6.1,6.1,9.5,14.3,9.5,23v21l-45.7-15.2c-6.7-2.2-11.3-8.5-11.3-15.7L38.6,347.6L38.6,347.6z M46.6,430.8v-18.9l49,16.3v19.1H63.1
		C54,447.3,46.6,439.9,46.6,430.8z M399.1,447.3h-32.5v-19.1l49-16.3v18.9C415.6,439.9,408.2,447.3,399.1,447.3z"/>
</g>
</svg>
